<?xml version="1.0" encoding="UTF-8" standalone="no"?>
<svg
   version="1.1"
   viewBox="0 0 1048576 1048576"
   id="svg74"
   sodipodi:docname="logo.inkscape.svg"
   inkscape:version="1.3 (0e150ed, 2023-07-21)"
   width="1048576"
   height="1048576"
   xmlns:inkscape="http://www.inkscape.org/namespaces/inkscape"
   xmlns:sodipodi="http://sodipodi.sourceforge.net/DTD/sodipodi-0.dtd"
   xmlns="http://www.w3.org/2000/svg"
   xmlns:svg="http://www.w3.org/2000/svg">
  <defs
     id="defs78" />
  <sodipodi:namedview
     id="namedview76"
     pagecolor="#ffffff"
     bordercolor="#000000"
     borderopacity="0.25"
     inkscape:showpageshadow="2"
     inkscape:pageopacity="0.0"
     inkscape:pagecheckerboard="0"
     inkscape:deskcolor="#d1d1d1"
     showgrid="false"
     inkscape:zoom="0.50146489"
     inkscape:cx="377.89286"
     inkscape:cy="438.71467"
     inkscape:window-width="1920"
     inkscape:window-height="1027"
     inkscape:window-x="1440"
     inkscape:window-y="25"
     inkscape:window-maximized="1"
     inkscape:current-layer="svg74" />
  <g
     stroke-width="2"
     fill="none"
     stroke-linecap="butt"
     id="g50"
     transform="matrix(2.4983181,0,0,2.5637165,-765.23441,-757.80621)">
    <path
       stroke="#8f7648"
       vector-effect="non-scaling-stroke"
       d="m 505.95,493.61 q 0.09,0.06 0.05,0.24 -0.05,0.27 -0.3,0.39 -5.43,2.55 -10.04,7.3"
       id="path2" />
    <path
       stroke="#898a85"
       vector-effect="non-scaling-stroke"
       d="M 495.66,501.54 Q 480.32,475.2 462.79,450.68 455.25,440.14 450.3,435.1 c -36.96,-37.62 -94.25,-29.49 -132.42,1.25 -3.07,2.47 -4.11,4.3 -3.81,8.14 q 1.48,19.07 7.89,35.52 12.54,32.16 42.14,49.74 26.57,15.78 57.1,9.55 9.89,-2.02 23.04,-6.02 27.51,-8.37 47.66,-15.23"
       id="path4" />
    <path
       stroke="#8f7648"
       vector-effect="non-scaling-stroke"
       d="m 491.9,518.05 q 0.89,6.23 5.21,10.99 0.16,0.17 0.11,0.41 -0.09,0.47 0.28,0.22"
       id="path6" />
    <path
       stroke="#898a85"
       vector-effect="non-scaling-stroke"
       d="m 497.5,529.67 q -2.71,0.14 -4.74,0.57 -25.9,5.56 -51.74,11.38 -15.5,3.49 -23.13,6.24 c -52.15,18.78 -66.92,75.52 -49.38,123.88 2.54,6.98 6.56,7.77 13.25,9.44 28.07,6.98 57.29,4.87 82.76,-8.91 27.14,-14.68 43.85,-41.1 43.12,-72.16 q -0.65,-27.06 -1.21,-54.12 c -0.07,-3.32 0.62,-7.18 0.65,-10.9"
       id="path8" />
    <path
       stroke="#8f7648"
       vector-effect="non-scaling-stroke"
       d="m 507.08,535.09 q 1.16,-0.22 2.78,-0.13 c 12.21,0.63 20.26,-5.52 23.08,-17.6"
       id="path10" />
    <path
       stroke="#898a85"
       vector-effect="non-scaling-stroke"
       d="m 532.94,517.36 c 26.47,10.7 42.98,17.62 65.09,24.6 41.25,13.02 80.03,-8.18 99.52,-44.66 q 9.05,-16.92 12.44,-37.31 c 1.27,-7.68 0.11,-9.19 -5.48,-14.02 -17.83,-15.41 -38.86,-26.49 -62.26,-29.54 -24.07,-3.13 -48.75,3.51 -66.06,21 q -5.96,6.01 -11.96,14.29 c -12.8,17.63 -24.45,33.83 -34.38,50.66"
       id="path12" />
    <path
       stroke="#8f7648"
       vector-effect="non-scaling-stroke"
       d="m 529.85,502.38 q 0.42,0.3 -0.21,0.22 a 0.43,0.42 -9.3 0 1 -0.32,-0.22 c -1.87,-3.42 -6.57,-5.77 -9.82,-7.82"
       id="path14" />
    <path
       stroke="#898a85"
       vector-effect="non-scaling-stroke"
       d="m 519.5,494.56 q 26.06,-28.9 44.78,-54.56 c 17.26,-23.65 20.12,-52.73 8.77,-79.63 -9.93,-23.55 -28.51,-41.68 -51.51,-53.21 -7.56,-3.78 -14.6,1.78 -20.75,5.67 -21.1,13.33 -38.9,34.27 -46.11,58.36 -5.71,19.06 -5.41,39.56 2.9,57.71 q 3.16,6.89 10.44,17.03 c 10.77,14.99 24.56,32.23 34.69,44.36 q 1.48,1.78 3.24,3.32"
       id="path16" />
    <path
       stroke="#f6d59d"
       vector-effect="non-scaling-stroke"
       d="m 519.5,494.56 q -2.73,0.64 -2.12,-0.6"
       id="path18" />
    <path
       stroke="#898a85"
       vector-effect="non-scaling-stroke"
       d="m 517.38,493.96 q 2.71,-22.84 0.44,-46.02 c -0.32,-3.25 -1.32,-12.56 -4.08,-13.1 -1.71,-0.34 -3.07,1.18 -3.47,2.68 q -2.17,8.08 -2.97,17.47 -1.61,19.12 -0.39,38.74"
       id="path20" />
    <path
       stroke="#f6d59d"
       vector-effect="non-scaling-stroke"
       d="m 506.91,493.73 q -0.3,-0.18 -0.96,-0.12"
       id="path22" />
    <path
       stroke="#f6d59d"
       vector-effect="non-scaling-stroke"
       d="m 507.08,535.09 q 0.33,0.42 -0.57,0.35"
       id="path24" />
    <path
       stroke="#8f7648"
       vector-effect="non-scaling-stroke"
       d="m 506.51,535.44 q 0.15,-0.11 0.22,-0.23 0.17,-0.32 -0.16,-0.44 -5.1,-1.97 -9.07,-5.1"
       id="path26" />
    <path
       stroke="#8f7648"
       vector-effect="non-scaling-stroke"
       d="m 517.38,493.96 q -5.3,-0.93 -10.47,-0.23"
       id="path28" />
    <path
       stroke="#f6d59d"
       vector-effect="non-scaling-stroke"
       d="m 495.66,501.54 q 0.14,1.11 -1.05,1.64"
       id="path30" />
    <path
       stroke="#898a85"
       vector-effect="non-scaling-stroke"
       d="m 494.61,503.18 q -21.33,-8.9 -42.52,-14.04 c -3.41,-0.82 -11.89,-2.82 -15.45,-1.23 q -0.54,0.24 -0.65,0.83 -0.44,2.34 1.74,3.61 9.11,5.27 18.85,9.3 12.07,4.99 34.57,12.32"
       id="path32" />
    <path
       stroke="#f6d59d"
       vector-effect="non-scaling-stroke"
       d="m 491.15,513.97 q -0.31,2.03 0.75,4.08"
       id="path34" />
    <path
       stroke="#898a85"
       vector-effect="non-scaling-stroke"
       d="m 497.5,529.67 c -10.23,12.67 -21.68,27.48 -29.9,42.25 -1.21,2.16 -1.69,4.4 -2.14,6.8 a 1.5,1.5 0 0 0 1.94,1.7 c 3.23,-1.07 5.2,-3.37 7.6,-5.78 q 16.37,-16.41 29.88,-35.28 c 0.84,-1.17 1.19,-2.59 1.63,-3.92"
       id="path36" />
    <path
       stroke="#f6d59d"
       vector-effect="non-scaling-stroke"
       d="m 532.94,517.36 0.2,-2.88"
       id="path38" />
    <path
       stroke="#898a85"
       vector-effect="non-scaling-stroke"
       d="m 533.14,514.48 q 24.09,-7.83 33.81,-11.55 9.21,-3.52 18.06,-7.87 3.22,-1.58 5,-3.89 a 1.75,1.75 0 0 0 -1.25,-2.81 c -2.33,-0.18 -4.65,-0.23 -7.01,0.18 -17.04,2.93 -35.09,8.27 -51.14,14.76"
       id="path40" />
    <path
       stroke="#f6d59d"
       vector-effect="non-scaling-stroke"
       d="m 530.61,503.3 -0.76,-0.92"
       id="path42" />
    <path
       stroke="#8f7648"
       vector-effect="non-scaling-stroke"
       d="m 494.61,503.18 q -3,5.92 -3.46,10.79"
       id="path44" />
    <path
       stroke="#8f7648"
       vector-effect="non-scaling-stroke"
       d="m 533.14,514.48 q -0.18,-5.03 -3.04,-10.88 -0.16,-0.32 0.16,-0.47 0.28,-0.13 0.35,0.17"
       id="path46" />
    <path
       stroke="#898a85"
       vector-effect="non-scaling-stroke"
       d="m 565.94,676.83 q 37.01,15.79 76.54,5.68 6.13,-1.57 6.57,-1.74 c 5.58,-2.21 6.09,-6.69 8.21,-13.56 12.67,-41.02 2.8,-87.62 -36.82,-109.66 -9.97,-5.55 -21.51,-8.82 -33.35,-12.24 q -25.52,-7.38 -51.18,-14.26 c -1.35,-0.37 -3.81,-1.36 -5.27,-1.35 q -2.14,0.01 -0.83,1.7 c 9.83,12.7 19.33,25.02 26.61,38.98 q 2.07,3.98 2.96,8.24 a 1.92,1.91 6.4 0 1 -2.67,2.13 q -2.4,-1.08 -4.59,-3.38 -18.58,-19.43 -33.54,-42.03 a 0.17,0.17 0 0 0 -0.32,0.1 q 0.06,3.23 -0.19,6.55 -1.93,25.22 -3.02,50.52 -0.58,13.46 0.2,19.97 c 3.52,29.36 24.03,52.97 50.69,64.35"
       id="path48" />
  </g>
  <path
     fill="#f0e8da"
     d="m 532.64184,510.1054 q -6.8204,1.64078 -5.29642,-1.53822 6.77044,-58.55528 1.09925,-117.98223 c -0.79946,-8.33208 -3.29778,-32.20029 -10.19314,-33.58469 -4.27212,-0.87167 -7.66982,3.02519 -8.66916,6.87076 q -5.42135,20.71483 -7.42,44.78812 -4.0223,49.01827 -0.97435,99.31838 -0.74949,-0.46146 -2.39838,-0.30764 -4.39704,-3.94812 -8.09455,-8.51154 C 465.38712,468.06045 430.93532,423.86199 404.02843,385.43187 Q 385.84068,359.4358 377.94599,341.77179 c -20.76103,-46.53146 -21.51052,-99.08763 -7.24512,-147.95207 18.01288,-61.75993 62.48294,-115.444151 115.19745,-149.618495 15.36464,-9.972856 32.95281,-24.227119 51.8401,-14.536271 57.46132,29.559653 103.88006,76.039836 128.68836,136.415356 28.35591,68.96398 21.21073,143.51684 -21.91025,204.14872 Q 597.74801,436.014 532.64184,510.1054 Z"
     id="path54"
     style="stroke-width:2.5308" />
  <path
     fill="#f0e8da"
     d="m 473.08194,528.00016 q 0.34977,2.84572 -2.62323,4.20448 -53.28913,-22.81707 -106.22849,-35.99458 c -8.51926,-2.10224 -29.705,-7.22968 -38.59901,-3.15337 q -1.3491,0.61529 -1.62391,2.12788 -1.09926,5.99911 4.34707,9.25502 22.75969,13.5108 47.0933,23.84257 30.1547,12.79294 86.36686,31.58498 -0.77448,5.20435 1.87374,10.45998 -50.34111,17.58708 -119.06984,39.04539 -32.85289,10.25486 -57.56124,15.43358 -76.27366,15.97195 -142.65398,-24.4835 Q 70.452994,555.25245 39.124084,472.80334 23.109867,430.6302 19.412356,381.74012 c -0.749495,-9.84467 1.848756,-14.53627 9.518592,-20.86864 95.360802,-78.80865 238.489442,-99.65165 330.827292,-3.20465 q 12.36667,12.92113 31.20398,39.9427 43.79553,62.86232 82.11972,130.39063 z"
     id="path56"
     style="stroke-width:2.5308" />
  <path
     fill="#f0e8da"
     d="m 566.21924,568.55815 0.49966,-7.3835 q 60.18449,-20.07392 84.46814,-29.61094 23.00951,-9.02428 45.11962,-20.17644 8.04459,-4.05068 12.49159,-9.97286 a 4.3720566,4.4865038 0 0 0 -3.12289,-7.20405 c -5.82108,-0.46146 -11.61719,-0.58965 -17.51321,0.46147 -42.57134,7.51169 -87.66598,21.20194 -127.76398,37.84046 l -1.89874,-2.35863 c 24.80831,-43.14734 53.91371,-84.67955 85.89218,-129.87786 q 14.98991,-21.22758 29.87989,-36.63552 c 43.24588,-44.8394 104.90437,-61.86247 165.03888,-53.83804 58.46065,7.81933 111.00029,36.22531 155.54526,75.73219 13.96566,12.38274 16.86376,16.25396 13.69086,35.9433 q -8.4694,52.27418 -31.07912,95.65226 c -48.69222,93.52438 -145.577,147.87517 -248.63262,114.49557 -55.23782,-17.89473 -96.48505,-35.63565 -162.61552,-63.06741 z"
     id="path58"
     style="stroke-width:2.5308" />
  <path
     fill="#222b2f"
     d="m 527.34542,508.56718 q -13.24109,-2.38426 -26.1574,-0.58966 -3.04795,-50.30011 0.97435,-99.31838 1.99865,-24.07329 7.42,-44.78812 c 0.99934,-3.84557 4.39704,-7.74243 8.66916,-6.87076 6.89536,1.3844 9.39368,25.25261 10.19314,33.58469 q 5.67119,59.42695 -1.09925,117.98223 z"
     id="path60"
     style="stroke-width:2.5308" />
  <path
     fill="#222b2f"
     d="m 470.45871,532.20464 q -7.49496,15.17721 -8.64418,27.6625 -56.21216,-18.79204 -86.36686,-31.58498 -24.33361,-10.33177 -47.0933,-23.84257 -5.44633,-3.25591 -4.34707,-9.25502 0.27481,-1.51259 1.62391,-2.12788 c 8.89401,-4.07631 30.07975,1.05113 38.59901,3.15337 q 52.93936,13.17751 106.22849,35.99458 z"
     id="path62"
     style="stroke-width:2.5308" />
  <path
     fill="#222b2f"
     d="m 566.7189,561.17465 q -0.44969,-12.8955 -7.59489,-27.89325 -0.39972,-0.82039 0.39974,-1.20495 0.69952,-0.33327 0.87442,0.43584 c 40.098,-16.63852 85.19264,-30.32877 127.76398,-37.84046 5.89602,-1.05112 11.69213,-0.92293 17.51321,-0.46147 a 4.3720566,4.4865038 0 0 1 3.12289,7.20405 q -4.447,5.92218 -12.49159,9.97286 -22.11011,11.15216 -45.11962,20.17644 -24.28365,9.53702 -84.46814,29.61094 z"
     id="path64"
     style="stroke-width:2.5308" />
  <path
     fill="#fcc160"
     d="m 498.78964,507.66988 q 1.64889,-0.15382 2.39838,0.30764 12.91631,-1.7946 26.1574,0.58966 -1.52398,3.179 5.29642,1.53822 c 8.11953,5.25562 19.86164,11.28037 24.53348,20.04826 a 1.0710648,1.07999 32.377551 0 0 0.79947,0.56403 q 1.57395,0.20509 0.52464,-0.56403 l 1.89874,2.35863 q -0.1749,-0.76911 -0.87442,-0.43584 -0.79946,0.38456 -0.39974,1.20495 7.1452,14.99775 7.59489,27.89325 l -0.49966,7.3835 c -7.04525,30.96968 -27.15671,46.73654 -57.66118,45.1214 q -4.04727,-0.23073 -6.94533,0.33329 0.82446,1.07675 -1.42403,0.8973 0.37475,-0.28201 0.54962,-0.58966 0.42472,-0.82039 -0.39972,-1.12803 -12.74143,-5.05052 -22.65975,-13.07496 -0.92438,0.64093 -0.69953,-0.56401 0.12492,-0.6153 -0.27482,-1.05113 -10.79273,-12.20328 -13.01623,-28.17523 -2.64822,-5.25563 -1.87374,-10.45998 1.14922,-12.48529 8.64418,-27.6625 2.973,-1.35876 2.62323,-4.20448 11.51725,-12.17767 25.08312,-18.71514 0.62458,-0.30765 0.7495,-0.99985 0.0999,-0.46147 -0.12492,-0.61529 z"
     id="path66"
     style="stroke-width:2.5308" />
  <path
     fill="#f0e8da"
     d="M 648.66374,977.39401 C 582.05858,948.21891 530.81807,887.68956 522.024,812.41885 q -1.9487,-16.6898 -0.49967,-51.19741 2.72317,-64.86203 7.54492,-129.51896 0.62458,-8.51154 0.47468,-16.79234 a 0.42471407,0.43583179 0 0 1 0.79947,-0.25638 q 37.37482,57.94 83.79359,107.753 5.47131,5.89655 11.46727,8.66537 a 4.8970951,4.7963822 88.404346 0 0 6.67051,-5.46072 q -2.2235,-10.92142 -7.39502,-21.12501 C 606.69199,668.69691 582.95797,637.11192 558.3995,604.55273 q -3.27279,-4.33268 2.07361,-4.35833 c 3.64754,-0.0256 9.79341,2.51244 13.16614,3.46103 q 64.10684,17.63835 127.86392,36.55859 c 29.58008,8.76791 58.41067,17.15126 83.31891,31.37989 98.98335,56.50431 123.64176,175.9735 91.98807,281.13715 -5.29644,17.61273 -6.57059,29.09817 -20.5112,34.76398 q -1.09926,0.43584 -16.41395,4.46087 -98.75851,25.91919 -191.22126,-14.5619 z"
     id="path68"
     style="stroke-width:2.5308" />
  <path
     fill="#f0e8da"
     d="m 477.67885,600.11749 c -25.55779,32.48229 -54.16353,70.45094 -74.69971,108.31703 -3.02297,5.53762 -4.22215,11.28034 -5.34641,17.43326 a 3.7474771,3.8455747 0 0 0 4.84674,4.35832 c 8.06957,-2.74318 12.99126,-8.63972 18.98722,-14.81828 q 40.89748,-42.07059 74.64974,-90.44791 c 2.09859,-2.99956 2.973,-6.64002 4.07227,-10.04977 q 2.24849,0.17945 1.42403,-0.8973 c -0.0749,9.53703 -1.79879,19.43298 -1.6239,27.94451 q 1.39906,69.37416 3.02296,138.74833 c 1.82378,79.62903 -39.92312,147.36242 -107.72747,184.99778 -63.63216,35.32794 -136.63302,40.73744 -206.76082,22.84272 -16.71374,-4.28141 -26.75698,-6.30675 -33.10271,-24.20148 -43.8205,-123.98134 -6.92034,-269.44662 123.36696,-317.5932 q 19.06216,-7.05024 57.7861,-15.9976 64.55653,-14.92083 129.26297,-29.17508 5.07158,-1.10241 11.84203,-1.46133 z"
     id="path70"
     style="stroke-width:2.5308" />
  <path
     fill="#222b2f"
     d="m 477.67885,600.11749 q 9.91832,8.02444 22.65975,13.07496 0.82444,0.30764 0.39972,1.12803 -0.17487,0.30765 -0.54962,0.58966 c -1.09927,3.40975 -1.97368,7.05021 -4.07227,10.04977 q -33.75226,48.37732 -74.64974,90.44791 c -5.99596,6.17856 -10.91765,12.0751 -18.98722,14.81828 a 3.7474771,3.8455747 0 0 1 -4.84674,-4.35832 c 1.12426,-6.15292 2.32344,-11.89564 5.34641,-17.43326 20.53618,-37.86609 49.14192,-75.83474 74.69971,-108.31703 z"
     id="path72"
     style="stroke-width:2.5308" />
  <g
     inkscape:groupmode="layer"
     id="layer1"
     inkscape:label="Layer 1">
    <path
       fill="#222b2f"
       d="m 529.15388,612.83809 q 11.80876,-4.48512 23.49073,-16.23638 0.63624,-0.65172 1.24025,0.0154 0.52558,0.58594 -0.13315,0.99961 c 27.84041,34.35559 54.49738,74.56598 74.64777,114.22264 2.80076,5.48904 4.4779,11.24887 5.85401,17.13793 a 4.3720566,4.537803 0 0 1 -5.70713,5.33946 Q 621.6814,731.7842 615.43573,725.1151 598.252,706.79102 582.76133,686.91262 566.40079,665.93763 529.15369,612.83663 Z"
       id="path64-3"
       style="stroke-width:2.54523" />
  </g>
</svg>
